# xmcd
#
# Track frame offsets:
#       150
#       10229
#       23732
#       37172
#       46558
#       57349
#       71381
#       84154
#       97042
#       109087
#       121243
#       136240
#       150241
#       165391
#       181227
#       191720
#       205000
#       220646
#       232416
#       246451
#       263266
#       275555
#       289270
#       304145
#       319283
#
# Disc length: 4467 seconds
#
# Revision: 1
# Processed by: cddbd v1.5.2PL0 Copyright (c) Steve Scherf et al.
# Submitted via: FreeDbEdit v0.1
#
DISCID=58117119
DTITLE=George Strait - 50 Number Ones [CD1]
DYEAR=1900
DGENRE=Country
TTITLE0=Fool Hearted Memory
TTITLE1=A Fire I Can't Put Out
TTITLE2=You Look So Good in Love
TTITLE3=Right or Wrong
TTITLE4=Let's Fall to Pieces Together
TTITLE5=Does Fort Worth Ever Cross Your Mind
TTITLE6=The Chair
TTITLE7=Nobody in His Right Mind Would Have Left Her
TTITLE8=It Ain't Cool (To Be Crazy About You)
TTITLE9=Ocean Front Property
TTITLE10=All My Ex's Live in Texas
TTITLE11=Am I Blue
TTITLE12=Famous Last Words of a Fool
TTITLE13=Baby Blue
TTITLE14=If You Ain't Lovin' (You Ain't Livin')
TTITLE15=Baby's Gotten Good at Goodbye
TTITLE16=What's Going on in Your World
TTITLE17=Ace in the Hole
TTITLE18=Love Without End Amen
TTITLE19=I've Come to Expect It From You
TTITLE20=If I Know Me
TTITLE21=You Know Me Better Than That
TTITLE22=The Chill of an Early Fall
TTITLE23=So Much Like My Dad
TTITLE24=I Cross My Heart
EXTD=
EXTT0=
EXTT1=
EXTT2=
EXTT3=
EXTT4=
EXTT5=
EXTT6=
EXTT7=
EXTT8=
EXTT9=
EXTT10=
EXTT11=
EXTT12=
EXTT13=
EXTT14=
EXTT15=
EXTT16=
EXTT17=
EXTT18=
EXTT19=
EXTT20=
EXTT21=
EXTT22=
EXTT23=
EXTT24=
PLAYORDER=
